<?xml version="1.0" encoding="utf-8"?>
<!-- Svg Vector Icons : http://www.onlinewebfonts.com/icon -->
<!DOCTYPE svg PUBLIC "-//W3C//DTD SVG 1.1//EN" "http://www.w3.org/Graphics/SVG/1.1/DTD/svg11.dtd">
<svg version="1.1" xmlns="http://www.w3.org/2000/svg" xmlns:xlink="http://www.w3.org/1999/xlink" x="0px" y="0px" viewBox="0 0 256 256" enable-background="new 0 0 256 256" xml:space="preserve">
<metadata> Svg Vector Icons : http://www.onlinewebfonts.com/icon </metadata>
<g><g><path fill="#fff" d="M234.8,13.4H21.1c-6.1,0-11.1,5-11.1,11.1v206.9c0,6.1,5,11.1,11.1,11.1h213.7c6.1,0,11.1-5,11.1-11.1V24.5C246,18.4,241,13.4,234.8,13.4L234.8,13.4L234.8,13.4z M91.4,161.7l-7.7,9.2c-0.7,0.9-1.2,2.5-1.1,3.6l1.2,11c0.1,1.1-0.6,1.7-1.6,1.1l-10.3-5.1c-1-0.5-2.7-0.5-3.7,0l-10.1,5c-1,0.5-1.7,0-1.6-1.1l1.2-11c0.1-1.1-0.4-2.8-1.1-3.6l-7.7-9.2c-0.7-0.9-0.4-1.8,0.7-2l9.8-1.9c1.1-0.2,2.5-1.2,3.1-2.2l6.5-10.5c0.6-1,1.5-0.9,2.1,0l5.9,10.4c0.6,1,1.9,2,3.1,2.2l10.6,2C91.8,159.9,92.1,160.8,91.4,161.7L91.4,161.7L91.4,161.7z M91.4,77.9l-7.7,9.2c-0.7,0.9-1.2,2.5-1.1,3.6l1.2,11c0.1,1.1-0.6,1.7-1.6,1.1l-10.3-5.1c-1-0.5-2.7-0.5-3.7,0l-10,5c-1,0.5-1.7,0-1.6-1.1l1.2-11c0.1-1.1-0.4-2.8-1.1-3.6L49,77.9c-0.7-0.9-0.4-1.8,0.7-2l9.8-1.9c1.1-0.2,2.5-1.2,3.1-2.2l6.5-10.5c0.6-1,1.5-0.9,2.1,0l5.9,10.5c0.6,1,1.9,2,3.1,2.2l10.6,2C91.8,76.2,92.1,77,91.4,77.9L91.4,77.9L91.4,77.9z M200.6,178.5h-82.2c-5.3,0-9.5-4.3-9.5-9.5c0-5.3,4.3-9.5,9.5-9.5h82.1c5.3,0,9.5,4.3,9.5,9.5C210.1,174.2,205.8,178.5,200.6,178.5L200.6,178.5z M200.6,94.7h-82.2c-5.3,0-9.5-4.3-9.5-9.5c0-5.3,4.3-9.5,9.5-9.5h82.1c5.3,0,9.5,4.3,9.5,9.5C210.1,90.5,205.8,94.7,200.6,94.7z"/></g></g>
</svg>